<svg id="Layer_1" data-name="Layer 1" xmlns="http://www.w3.org/2000/svg" xmlns:xlink="http://www.w3.org/1999/xlink" viewBox="0 0 889.9 889.9"><defs><style>.cls-1,.cls-4,.cls-5{fill:none;}.cls-2{clip-path:url(#clip-path);}.cls-3{fill:#e8ebea;}.cls-4,.cls-5{stroke:#e5b956;}.cls-4{stroke-width:5.68px;}.cls-5{stroke-width:17px;}.cls-6{fill:#dba53a;}.cls-10,.cls-11,.cls-12,.cls-13,.cls-14,.cls-15,.cls-16,.cls-17,.cls-18,.cls-19,.cls-20,.cls-7{fill:#373535;}.cls-8{fill:#d26b53;}.cls-9{fill:#fbf9f0;}.cls-10{font-size:87px;}.cls-10,.cls-11,.cls-12,.cls-13,.cls-14,.cls-15,.cls-16,.cls-17,.cls-18,.cls-19,.cls-20{font-family:AvenirNext-Regular, Avenir Next;}.cls-11{font-size:87px;}.cls-12{font-size:87px;}.cls-13{font-size:87px;}.cls-14{font-size:87px;}.cls-15{font-size:87px;}.cls-16{font-size:87px;}.cls-17{font-size:87px;}.cls-18{font-size:87px;}.cls-19{font-size:87px;}.cls-20{font-size:87px;}</style><clipPath id="clip-path" transform="translate(-262.13 -76.77)"><rect class="cls-1" x="262.13" y="76.77" width="889.9" height="889.9"/></clipPath></defs><g class="cls-2"><path class="cls-3" d="M707.08,949.67c236.35,0,427.95-191.6,427.95-427.95S943.43,93.77,707.08,93.77s-427.95,191.6-427.95,428,191.6,427.95,428,427.95" transform="translate(-262.13 -76.77)"/><circle class="cls-4" cx="444.95" cy="444.95" r="442.11"/><circle class="cls-5" cx="444.95" cy="444.95" r="419.45"/><path class="cls-6" d="M702,821.87c168,0,304.1-136.15,304.1-304.1S870,213.66,702,213.66,397.92,349.82,397.92,517.77,534.07,821.87,702,821.87" transform="translate(-262.13 -76.77)"/><path class="cls-7" d="M984,757.79s26.62,53.23,25.22,70l14,1.4s-14-68.64-29.42-81.25c-7.71,9.81-9.81,9.81-9.81,9.81" transform="translate(-262.13 -76.77)"/><path class="cls-7" d="M943.38,530.85s-4.2-35,12.61-58.13a189,189,0,0,0,12.6,42.72l-11.9,14.71-3.51,14Z" transform="translate(-262.13 -76.77)"/><path class="cls-7" d="M960.19,465s18.21-8.4,23.81-25.21,10.86-15.41,10.86-15.41-8.06,35-2.45,50.43,9.8,38.52,9.8,41.67-15.41,32.57-15.41,32.57l-2.68-15.41s-.12-4-.12-9.8c0-7-4.2-13.31-4.2-13.31l-8.4,2.1S953.18,465,960.19,465" transform="translate(-262.13 -76.77)"/><path class="cls-7" d="M1000.81,420.19s14-7,25.22-9.81,0,14,1.4,22.41,1.4,42,1.4,42l-22.41,33.62s-4.91-21-11.56-35,5.95-53.23,5.95-53.23" transform="translate(-262.13 -76.77)"/><path class="cls-7" d="M1036.53,408.28s8.41-9.11,15.41-14,16.81-2.8,16.81-2.8l-4.9,46.93-31.52,32.92s-2.8-32.92-2.1-41.33,6.3-21.71,6.3-21.71" transform="translate(-262.13 -76.77)"/><path class="cls-7" d="M1067.35,434.89l3.5-44.82s15.41.7,26.62-7.71,11.91-10.5,11.91-10.5v10.5s-32.92,51.13-42,52.53" transform="translate(-262.13 -76.77)"/><path class="cls-7" d="M1109.38,388.67l-.7,33.62s-16.11,15.41-34.32,16.81c14.7-21,35-50.43,35-50.43" transform="translate(-262.13 -76.77)"/><path class="cls-7" d="M1070.85,442.6s16.81,0,35.72-16.11c2.11,11.91,1.41,15.41,4.91,18.91s.7,9.11.7,9.11a142.12,142.12,0,0,1-49.73,18.91c-28.72,4.9-24.52,4.2-24.52,4.2Z" transform="translate(-262.13 -76.77)"/><path class="cls-7" d="M1035.83,481.82s-22.41,22.41-25.91,33.62c-2.1,3.5-1.4,5.6-1.4,5.6s6.3-9.8,42-14,45.53-10.51,45.53-10.51,15.41-5.6,17.51-19.61S1115,458,1115,458l-6.3.7s-18.21,11.9-41.33,16.11-31.52,7-31.52,7" transform="translate(-262.13 -76.77)"/><path class="cls-7" d="M1005,524.55l-13.3,25.91,7.7,1s-.7-6.65,53.93-5.25c14-.7,30.12-14,30.12-14l4.2-6.3s-2.8-4.2,3.51-15.41,13.3-15.41,13.3-15.41-29.41,14-57.08,15.41c-20,3.5-24.16,4.9-24.16,4.9Z" transform="translate(-262.13 -76.77)"/><path class="cls-7" d="M1003.61,551.86s9.11-4.9,49.73-3.5c18.92-4.2,28-11.91,28-11.91s1.4,22.42-23.11,35c-22.42,6.3-25.92,6.3-25.92,6.3s-29.42,1.4-32.92,2.8l-3.5,1.4H978.4v-3.5l3.5-7s16.11,7,35-3.51a36.76,36.76,0,0,0-13.31-16.11" transform="translate(-262.13 -76.77)"/><path class="cls-7" d="M997.31,584.78a101.87,101.87,0,0,1,24.52-4.2c14-.7,32.21-6.3,32.21-6.3s-14.7,15.41-15.4,21-10.51,11.21-16.11,14.71a111.35,111.35,0,0,1-11.91,6.3s7.7-21.71-13.31-31.52" transform="translate(-262.13 -76.77)"/><path class="cls-8" d="M984.06,637.53c13.93,0,25.22-11.6,25.22-25.9S998,585.74,984.06,585.74s-25.21,11.59-25.21,25.89,11.28,25.9,25.21,25.9" transform="translate(-262.13 -76.77)"/><path class="cls-8" d="M1029.2,731.64c11.55-7.79,13.66-24.84,4.73-38.09s-25.54-17.67-37.08-9.88-13.66,24.84-4.73,38.08,25.54,17.67,37.08,9.89" transform="translate(-262.13 -76.77)"/><path class="cls-8" d="M921.72,788c13.93,0,25.22-14.52,25.22-32.43s-11.29-32.43-25.22-32.43-25.21,14.52-25.21,32.43S907.8,788,921.72,788" transform="translate(-262.13 -76.77)"/><path class="cls-8" d="M940.79,720.84c13.93,0,25.22-11.6,25.22-25.9s-11.29-25.89-25.22-25.89-25.21,11.59-25.21,25.89,11.28,25.9,25.21,25.9" transform="translate(-262.13 -76.77)"/><path class="cls-8" d="M874.39,740.45c15.4,0,27.88-11.59,27.88-25.9s-12.48-25.89-27.88-25.89-27.88,11.59-27.88,25.89,12.48,25.9,27.88,25.9" transform="translate(-262.13 -76.77)"/><path class="cls-8" d="M946.88,722.06s6.3,42.73,37.82,29.42c12.61-11.2,8.41-24.51,8.41-24.51s-7.71-11.21-8.41-17.51-14-9.11-14-9.11l-3.5.7s-2.8,19.61-20.31,21" transform="translate(-262.13 -76.77)"/><path class="cls-8" d="M992.41,641.52s-4.91,25.91,23.11,24.51,29.42-20.31,29.42-20.31V629.61s-4.9-15.41-23.82-14.71l-10.5,4.2s-.7,14-18.21,22.42" transform="translate(-262.13 -76.77)"/><path class="cls-8" d="M920.26,647.82s7.71-28,38.53-14c21.71,20.31,0,39.23,0,39.23s-10.51-7-17.51-7.71-15.41,6.3-15.41,6.3,4.2-14.7-5.61-23.81" transform="translate(-262.13 -76.77)"/><path class="cls-8" d="M927.27,585.48s-26.62,4.91-18.91,32.22c7.7,18.91,13.31,17.51,13.31,17.51s3.5-6.3,13.3-7.7,20.32,2.1,20.32,2.1l2.1-2.8s-3.51-7.71,0-23.82c-5.61-16.11-11.91-20.31-30.12-17.51" transform="translate(-262.13 -76.77)"/><path class="cls-8" d="M867.73,665.33s-1.4-32.92,35-27.32c10.51,3.51,24.52,13.31,21,31.52-7,12.61-11.91,21-11.91,21s-11.21,6.3-15.41,4.2-14.71-9.11-18.91-9.11-9.81-20.31-9.81-20.31" transform="translate(-262.13 -76.77)"/><path class="cls-7" d="M750.76,717.16s9.81-1.4,16.81,1.4,37.13,19.61,39.23,21.72,5.6,1.4,5.6,1.4,3.5-4.91,8.41-7,17.51-2.1,17.51-2.1-28.72-28-37.83-31.52-19.61-9.1-24.51-7-25.22,23.11-25.22,23.11" transform="translate(-262.13 -76.77)"/><path class="cls-7" d="M697.53,823.63s-4.9-13.66,8.41-20.32,14.71-10.5,14.71-10.5l31.52,3.85s-34.33,2.45-54.64,27" transform="translate(-262.13 -76.77)"/><path class="cls-7" d="M722.75,790.71l30.82,4.9,23.11-11.21-32.92-11.2s-12.61-2.11-21,17.51" transform="translate(-262.13 -76.77)"/><path class="cls-7" d="M744.46,769.69l35.72,14,34.32-17.51-25.21-2.8s.7,4.9-11.21,6.3-33.62,0-33.62,0" transform="translate(-262.13 -76.77)"/><path class="cls-7" d="M793.49,761.64l25.21,2.45,21-9.81s-18.21-4.2-21.72-11.2c-12.6,7-20.31,7-24.51,18.56" transform="translate(-262.13 -76.77)"/><path class="cls-7" d="M819.75,740.28a30.87,30.87,0,0,0,28.37,11.9c18.91-2.1,28.72-7.7,28.72-7.7s-21-1.4-24.52-9.11c-17.51,0-32.22-1.4-32.57,4.91" transform="translate(-262.13 -76.77)"/></g><polygon class="cls-7" points="437.51 720.94 436.11 729.35 449.41 720.94 437.51 720.94"/><g class="cls-2"><path class="cls-7" d="M700.33,794.21l14.71,1.4s.7,1.4,4.91-7,7.7-14,10.5-14.7-23.81.7-23.81.7-8.41,12.6-6.31,19.61" transform="translate(-262.13 -76.77)"/><path class="cls-7" d="M708,770.39s0-9.1,5.6-11.9,4.2-10.51,7.71-11.91,20.31-2.1,51.13,16.11l10.5,3.5s-11.9,2.8-30.82,1.4c-11.2,1.4-13.3.7-13.3.7l-4.91,4.2Z" transform="translate(-262.13 -76.77)"/><path class="cls-7" d="M723.45,742.38s4.2-11.21,13.31-13.31,13-7.71,13-7.71,2.45-4.2,16.46.7,40.63,21,40.63,21-15.41,11.9-15.41,14-2.1,4.2-4.2,5.6-42-21-63.74-20.31" transform="translate(-262.13 -76.77)"/><path class="cls-7" d="M785.78,690.55s46.93,23.11,53.94,39.22c9.8,3.5,11.2,2.8,11.2,2.8s-14-9.81-3.5-32.92c-14.71-14-21.71-18.21-25.91-18.91s-14.71-1.4-19.27,2.1-16.46,7.71-16.46,7.71" transform="translate(-262.13 -76.77)"/><path class="cls-7" d="M841.82,690.55l7,6.3s11.21-11.21,15.41-11.21H853l-4.91,3.5Z" transform="translate(-262.13 -76.77)"/></g><polygon class="cls-7" points="563.58 603.27 576.19 611.68 577.59 606.77 563.58 603.27"/><g class="cls-2"><path class="cls-9" d="M867.73,648.79s-14.71-7-23.81-40.62c18.21,9.81,35.72,28,34.32,30.82s-10.51,9.8-10.51,9.8" transform="translate(-262.13 -76.77)"/><path class="cls-9" d="M871.24,625s.7-25.92,12.6-29.42c1.4,11.91-.7,39.93-.7,39.93l-2.8,2.1s-4.2-10.51-9.1-12.61" transform="translate(-262.13 -76.77)"/><path class="cls-9" d="M867.73,651.6s-23.81,21-25.91,35c1.4,2.8,8.4-2.1,8.4-2.1l14-17.52s0-14,3.5-15.4" transform="translate(-262.13 -76.77)"/><path class="cls-9" d="M855.13,642.49s-35,8.4-37.13,13.31,28,10.5,31.52,9.1,14-13.31,14-13.31Z" transform="translate(-262.13 -76.77)"/><path class="cls-9" d="M857.23,613.77V597.66l2.8-2.8,9.8,10.51s-1.4,14.71-.7,17.16-11.9-8.76-11.9-8.76" transform="translate(-262.13 -76.77)"/><path class="cls-7" d="M888.05,606.5s28.71,33.62,29.41,35,4.91-3.5,4.91-3.5-14.71-3.51-17.51-28.72c-14-14.71-16.11-16.81-16.11-16.81Z" transform="translate(-262.13 -76.77)"/><path class="cls-7" d="M860.73,579.88l16.11,15.41,6.3-2.8,2.1-2.8s-48.32-48.33-56-50.43a30.59,30.59,0,0,1-9.45,3.5l10.85,10.5s24.52-.7,30.12,26.62" transform="translate(-262.13 -76.77)"/><path class="cls-8" d="M770.38,587.58s-7.71,47.63,35.72,39.23c21.71-8.41,14.71-25.92,14.71-25.92s3.5-18.91-27.32-22.41c-9.81,9.1-7,11.21-23.11,9.1" transform="translate(-262.13 -76.77)"/><path class="cls-8" d="M803.3,577.78s23.11,3.85,21,23.81a15,15,0,0,0,10.5,4.91s42.73-5.61,16.81-38.53c-5.6-7.7-12.6-16.11-34.32-10.5s-14,20.31-14,20.31" transform="translate(-262.13 -76.77)"/><path class="cls-8" d="M769.68,542.76s-17.51,7.7-13.31,26.26,27.31,13,27.31,13,11.91-3.5,14-14-.7,12.61-28-25.21" transform="translate(-262.13 -76.77)"/><path class="cls-8" d="M742.07,611.58c12.32-12.32,14.49-30.12,4.86-39.75s-27.44-7.46-39.76,4.86-14.49,30.11-4.86,39.75,27.44,7.46,39.76-4.86" transform="translate(-262.13 -76.77)"/><path class="cls-8" d="M681.71,587.74c15.43,0,27.94-11,27.94-24.68s-12.51-24.67-27.94-24.67-27.93,11.05-27.93,24.67,12.5,24.68,27.93,24.68" transform="translate(-262.13 -76.77)"/><path class="cls-8" d="M785.78,521.75s10.51,9.8,9.11,20.31c11.91,3.5,17.51,2.8,17.51,2.8s31.52-4.9,29.42-28.37c-1.4-18.56-18.21-17.16-18.21-17.16s-8.41,16.11-15.41,18.91-22.42,3.51-22.42,3.51" transform="translate(-262.13 -76.77)"/><path class="cls-8" d="M719.25,551.51s7,15.76,31.51,10.86c4.91-11.91,7-16.11,11.21-17.51s2.8-10.86,2.8-10.86-18.91,18.56-45.52,17.51" transform="translate(-262.13 -76.77)"/><path class="cls-8" d="M715.74,538.4s0-17.78,11.21-19.88,14.71-.7,14.71-.7a68.19,68.19,0,0,0-25.92,20.58" transform="translate(-262.13 -76.77)"/><path class="cls-9" d="M769.68,522.45s0,.3,0,.85c-.09,5,.67,30.31,25.25,39.77h2.8s-1.4-36.42-19.61-46.23c15.41,3.51,26.62,2.1,32.22-2.8s17.51-28,17.51-28-11.91-7-39.22,17.52c-4.91,4.9-6.31,4.2-6.31,4.2S806.1,493,794.19,455.91c-13.31,13.3-18.91,23.81-22.41,45.52H769s-32.22-35.72-42-33.62c-2.8,8.41-.7,14-.7,14s9.81,37.12,37.12,33.62c-29.42,10.51-30.12,1.4-46.93,30.12a29.38,29.38,0,0,0,7,3.5s39.22-4.9,46.23-26.61" transform="translate(-262.13 -76.77)"/><path class="cls-9" d="M656.91,452.4s4.9,16.81,25.21,18.22,22.42,0,22.42,0-26.62,21-24.52,32.21c-1.4,7.71-.35,8.41-.35,8.41s20.66-2.1,29.07-18.91,7-18.21,7-18.21l6.31,4.9s0-9.11,2.1-12.61a4.58,4.58,0,0,1,5.6-2.1l9.81,5.6s26.61-7,28.71-10.5-4.2-10.86-9.8-11.91-22.41-1.05-22.41-1.05,13.3-31.87,7.7-41c-1.4-4.91-24.51,22.41-24.51,22.41l-2.11,14s-7.7-28-23.81-31.52c-2.1,2.1-2.8,23.81-2.8,23.81s2.1,17.51,16.11,21c-20.31-1.4-49.73-2.81-49.73-2.81" transform="translate(-262.13 -76.77)"/><path class="cls-9" d="M811,448.9s-18.91-25.91-8.41-50.43c4.21-1.4,4.21,1.4,4.21,1.4s10.5,5.61,14,35l2.8,9.11s7.7-23.11,35.72-23.11c6.3,2.1,2.8,3.5,2.8,3.5s-1.4,23.46-25.92,31.52c-1.4,3.5-.7,4.9-.7,4.9s30.82-9.11,44.83,14a2.06,2.06,0,0,1-2.1,2.1s-8.41,0-14.71,4.9c-8.75,3.5-11.91.7-11.91.7s3.51,21,14.71,26.62c-16.81-2.8-24.51-7.71-24.51-7.71l-12.61-11.9.7-4.21-4.2-2.8s-24.52,4.21-28.72,9.81c12.61-19.61,14.71-21,14.71-21l-11.91-.7s0-9.81-4.2-16.11c-2.8,0-9.81,2.1-14.71,9.8-5.6-4.2-9.8-7.7-9.8-7.7l-2.81-4.91s36.43-2.1,42.73,1.41a4,4,0,0,0,0-4.21" transform="translate(-262.13 -76.77)"/><path class="cls-9" d="M743.76,432.09s4.2-13.31,4.2-16.81a43.67,43.67,0,0,1,11.91,14s3.5,13.31,6.3,15.41,0,4.2,0,4.2l-10.5-3.5Z" transform="translate(-262.13 -76.77)"/><path class="cls-9" d="M769,448.2l10.51.7,2.1-31.52s.7-14-11.2-27.31c-9.11,23.81-9.11,25.91-9.11,25.91s.7,16.81,7.7,32.22" transform="translate(-262.13 -76.77)"/><path class="cls-9" d="M782.28,448.2,784.73,416l14.36-24.51,1.4-1.4-.7,5.6s-4.9,22.41-2.1,30.82a104.11,104.11,0,0,1-11.2,21Z" transform="translate(-262.13 -76.77)"/></g><polygon class="cls-9" points="517.35 326.02 523.66 316.22 529.26 324.62 521.56 335.13 517.35 326.02"/><g class="cls-2"><path class="cls-9" d="M749.64,412.4l9.8,10.86s.7-14.71,4.2-21c-9.8-10.51-9.8-11.21-9.8-11.21l-5.61,13.31Z" transform="translate(-262.13 -76.77)"/></g><polygon class="cls-9" points="526.99 372.13 539.42 360.93 536.97 351.47 525.76 371.08 526.99 372.13"/><g class="cls-2"><path class="cls-7" d="M716.79,401.62s-1.4,19.62-.7,24.17,1,4.55,1,4.55l1.05-5.25,11.56-12.26Z" transform="translate(-262.13 -76.77)"/><path class="cls-7" d="M716.44,398.47l13.66,11.91,1.4,1.05L742,402.32s2.8-.7,3.5,1.06,1,1.4,1,1.4,4.2-15.06,5.6-15.76a2.54,2.54,0,0,1,2.46,0l9.1,10.85,2.8-2.8s-13.3-20.31-41.32-29.42c-9.81-6.65-7.36-1.4-22.06-16.81,1.05,8.06,11.9,21.72,11.9,21.72Z" transform="translate(-262.13 -76.77)"/><path class="cls-7" d="M702.79,348s12.6,16.46,33.79,21.37a107,107,0,0,1,30.64,23.81l2.11-4.9s5.25,2.45,7.35,7,1.4,4.55,1.4,4.55V370.81s-23.81-27-35.37-33.27c-14.88-11.91-16.46-16.11-20.31-29.07-9.11,12.26-17.86,20.66-18.56,26.61s-1.05,13-1.05,13" transform="translate(-262.13 -76.77)"/><path class="cls-7" d="M723.8,306.72s3.85,18.56,19.26,27.31,35,32.92,35,32.92l-.35-35.72s-16.46-25.21-41-42.37c-3.16,5.6-4.91,16.11-13,17.86" transform="translate(-262.13 -76.77)"/><path class="cls-7" d="M737.11,286.41s36.07,28,38.87,38.52c.35-9.46,0-9.81,0-9.81a24.3,24.3,0,0,1-6.31-13.66c-.7-8,4.91-14.7,4.91-14.7s-10.16-24.52-21-29.77c-9.46,7-19.62,11.2-16.46,29.42" transform="translate(-262.13 -76.77)"/><path class="cls-7" d="M754.62,255.24s16.46,13.66,20.31,27c2.45-.35,2.45-1.4,2.45-1.4l.7-53.23S767.22,251,754.62,255.24" transform="translate(-262.13 -76.77)"/><path class="cls-7" d="M779.83,228.27,778.78,278s23.46-28.54,1.05-49.73" transform="translate(-262.13 -76.77)"/><path class="cls-7" d="M780.8,225.82l1.05-3.15s19.62,25.91,23.47,43.07c-8.76-11.55-8.76-14.71-13.31-13.3,0-8.06,1-10.16-11.21-26.62" transform="translate(-262.13 -76.77)"/><path class="cls-7" d="M791.74,254.89s2.45-4.56,14,15.76c.35,20.31,0,24.86,0,24.86s-13.66-22.06-20.67-21.36c3.51-8.76,6.66-19.26,6.66-19.26" transform="translate(-262.13 -76.77)"/><path class="cls-7" d="M783.33,276.25s-14.71,14.71-9.45,30.12c9.1,7.7,15.23,8.75,15.23,8.75l25,8.76s-8-13-7.35-24.52C789.64,278,788.59,277,788.59,277s-3.51-1.23-5.26-.7" transform="translate(-262.13 -76.77)"/><path class="cls-7" d="M774.93,309.52s11.21,7.35,20.31,9.46a103.75,103.75,0,0,1,18.56,6.65l10.86,12.61H797.34s-8.05-2.1-8.75-12.26c-4.56-8.76-13.66-16.46-13.66-16.46" transform="translate(-262.13 -76.77)"/><path class="cls-7" d="M801.19,340.69s26.27,7,34.67,20.31v-7.7s-3.5-12.61-10.5-13-24.17.35-24.17.35" transform="translate(-262.13 -76.77)"/><path class="cls-7" d="M782.63,344.54l-.7-23.46,4.2,4.2s2.46,11.21,4.91,11.21c-5.61,6.3-8.41,8.05-8.41,8.05" transform="translate(-262.13 -76.77)"/><path class="cls-7" d="M783.33,347v35l36.07-30.47s.36-3.15-17.16-9.1c-8-2.45-9.1-4.55-9.1-4.55Z" transform="translate(-262.13 -76.77)"/><path class="cls-7" d="M783.33,383.76l-.35,8.41,3.86-1.4,5.25,8.4s5.25-9.45,7-10.85,2.45-1.4,2.45-1.4l.7,1.05v7.7s6.31.35,9.11,5.6c4-1.75,22.76-21,22.76-21s8.41-9.1,1-17a73.57,73.57,0,0,0-13.65-11.74Z" transform="translate(-262.13 -76.77)"/><path class="cls-7" d="M812.4,403s6.3,8.75,7.71,19.26c10.85-7.71,11.55-8.76,11.55-8.76l1.75-28Z" transform="translate(-262.13 -76.77)"/><path class="cls-7" d="M820.46,424s2.45,13.31,2.8,14.71,7-9.46,7-9.46l.35-13.48Z" transform="translate(-262.13 -76.77)"/></g><polygon class="cls-7" points="476.73 367.58 490.74 368.28 480.58 357.08 476.73 367.58"/><polygon class="cls-7" points="529.26 372.13 546.42 373.54 540.47 362.33 529.26 372.13"/><g class="cls-2"><path class="cls-7" d="M600.52,583.3s3.86-6.65,24.17-7.7,25.56-2.45,25.56-2.45,6.66,9.45,13.31,12.61,15.41,4.9,20,4.9,14.71-4.55,14.71-4.55l-4.55,8.4s-32.92-1.75-43.78-4.9-49.38-6.31-49.38-6.31" transform="translate(-262.13 -76.77)"/><path class="cls-7" d="M598.42,585.41s-16.46,6.65-20,31.51c7.36-1.4,8.76-2.45,8.76-2.45s49.38-4.2,81.6.7a111,111,0,0,0,15.75-2.45l7.71-5.6V596.61s-30.12-2.45-38.52-4.2-37.48-6.3-39.58-6.3-15.76-.7-15.76-.7" transform="translate(-262.13 -76.77)"/><path class="cls-7" d="M560.25,656.15s-2.8-13.31,6.65-24.17l9.46-10.85,4.2-2.45,6-2.11s36.42-2.45,46.22-1.4a296.15,296.15,0,0,0,32.92,2.1c10.51-.7,15.41-1.4,15.41-1.4L642.2,639.34s-33.62.7-50.43,4.55-21.54,6.3-21.54,6.3Z" transform="translate(-262.13 -76.77)"/><path class="cls-7" d="M560.25,659l-2.8,14.71s-3.85,11.2-4.55,14,0,2.45,0,2.45.35-8.76,27-18.21,34.32-9.46,34.32-9.46l24.17-21s-48.68,3.15-56.39,6.3S560.25,659,560.25,659" transform="translate(-262.13 -76.77)"/><path class="cls-7" d="M552.9,691.87S542.74,702,541.69,709.73s-1.75,16.11-1.75,16.11l.7,1.4s9.45-15.76,49-25.92l4.2-2.1,19.61-35s-30.82,8.06-40.62,13-20,14.71-20,14.71" transform="translate(-262.13 -76.77)"/><path class="cls-7" d="M540.29,730s-4.2,20,.7,27.32v3.85s1.75-12.26,30.47-21l4.55-1.75,15.41-35s-29.94,4.9-51.13,26.61" transform="translate(-262.13 -76.77)"/><path class="cls-7" d="M528.38,791s10.86-15.41,11.56-21.72.35-6,.35-6a51.47,51.47,0,0,1,32.22-21.71l2.45-.7.7,3.85S559.2,773.47,528.38,791" transform="translate(-262.13 -76.77)"/><path class="cls-7" d="M532.93,790.28S584.77,785,583.71,750c-3.85-4.2-4.72-6.3-4.72-6.3l-1.58.35s-9.45,28-44.48,46.23" transform="translate(-262.13 -76.77)"/><path class="cls-7" d="M577.76,740.72s13.66-38,17.86-37.64c1,10.85-1.4,28.36,3.85,29.76-11.55,6.31-14,7.36-14,7.36l-1.4,7Z" transform="translate(-262.13 -76.77)"/><path class="cls-7" d="M597.45,701.87s15.41-31.52,19.61-34.67c.35,16.46,0,20.31,10.51,43.77-2.8,10.16-9.46,24.17-25.22,21a9,9,0,0,1-4.55-5.61Z" transform="translate(-262.13 -76.77)"/><path class="cls-7" d="M619.79,664.55s-2.45,9.81,1.75,24.17S628.19,708,628.19,708l.35-24.52s.7-11.55,12.26-20.31c2.45-19.61,3.15-21,3.15-21s-20.66,14-24.16,22.41" transform="translate(-262.13 -76.77)"/><path class="cls-7" d="M630.29,687.32l.35,18.91s13.31-27.32,25.22-30.47c-24.87,10.51-25.57,11.56-25.57,11.56" transform="translate(-262.13 -76.77)"/><path class="cls-7" d="M631,683.46s1.75-16.11,18-21.53a233.11,233.11,0,0,0,32-1.23l-22.76,13s-8.76,1.05-12.26,2.8-15.06,7-15.06,7" transform="translate(-262.13 -76.77)"/><path class="cls-7" d="M652,660.35s30.46-.35,33.27-1.75,22.06-10.16,25.56-17.16c-11.56-.7-11.91-.7-11.91-.7s-8,8.4-23.46,12.43A233.58,233.58,0,0,0,652,660.35" transform="translate(-262.13 -76.77)"/><path class="cls-7" d="M646.4,641.09,687,615.87l-2.81,32.57-34,10.51-1.75,1.4-5.6,2.1s.7-14.36,3.5-21.36" transform="translate(-262.13 -76.77)"/><path class="cls-7" d="M689.13,614.47l4.9-4.55s11.21,15.76,21,15.06c-16.81,14.71-17.86,15.41-17.86,15.41l-10.85,5.25Z" transform="translate(-262.13 -76.77)"/></g><polygon class="cls-7" points="439.61 561.87 450.46 562.92 462.72 548.56 454.67 548.56 439.61 561.87"/><polygon class="cls-7" points="352.06 363.73 391.28 378.44 391.28 373.54 408.79 372.83 376.57 360.93 352.06 363.73"/><g class="cls-2"><path class="cls-7" d="M586.85,431.39l20.8,6.27s-4.44-3.2-12.86-13.15c-7.34,5.43-7.94,6.88-7.94,6.88" transform="translate(-262.13 -76.77)"/><path class="cls-8" d="M630,435.49c15.1-3.48,25.26-15.27,22.71-26.32S635.82,392,620.73,395.46,595.47,410.73,598,421.79s16.86,17.19,32,13.7" transform="translate(-262.13 -76.77)"/><path class="cls-8" d="M599.66,397.59c12.6-11,16.09-27.58,7.79-37.13s-25.24-8.4-37.84,2.55-16.09,27.58-7.79,37.13,25.24,8.4,37.84-2.55" transform="translate(-262.13 -76.77)"/><path class="cls-8" d="M569.63,477.62S585,514.74,609.55,500s2.8-42,0-44.82-16-18.92-33.54-10.51c-7,10.51-6.3,9.81-6.3,9.81a37.62,37.62,0,0,1,18.21,25.56c-16.11-2.1-18.29-2.45-18.29-2.45" transform="translate(-262.13 -76.77)"/><path class="cls-7" d="M329.81,241.58s41.33,21.71,49.73,23.11-20.31-23.11-20.31-23.11-11.21,4.2-29.42,0" transform="translate(-262.13 -76.77)"/><path class="cls-7" d="M362.73,240.88s16.81,14,20.32,23.81C411.06,278,416,280.1,416,280.1s-7.71-38.52-23.12-42.72c-13.31,4.9-10.5,7.7-30.12,3.5" transform="translate(-262.13 -76.77)"/><path class="cls-7" d="M395,234.57s18.91,12.61,23.12,44.13c31.52,18.21,31.52,16.81,31.52,16.81s-9.11-66.54-31.52-72.14c-18.56,11.2-23.12,11.2-23.12,11.2" transform="translate(-262.13 -76.77)"/><path class="cls-7" d="M423.67,219.87s33.62-7,39.92,21,7.71,63,7.71,63L451,294.81s1.4-47.63-29.42-74.24a3.07,3.07,0,0,0,2.1-.7" transform="translate(-262.13 -76.77)"/><path class="cls-7" d="M474.1,307.42l21,19.61s7-68.29.7-88.25c-4.2-14-39.22-16.11-39.22-16.11s18.91,9.1,17.51,84.75" transform="translate(-262.13 -76.77)"/><path class="cls-7" d="M498.61,329.83l11.91,14.71,3.5-2.1s-5.6-22.41-1.4-31.52c4.9-3.5,6.31,0,9.81,4.9,2.1-8.4,2.1-9.45,2.1-9.45l.7-30.47s-5.6-.7-11.21-10.51-15.41-25.21-15.41-25.21,7.71,26.61,0,89.65" transform="translate(-262.13 -76.77)"/><path class="cls-7" d="M528.73,279.4s11.91,8.41,11.91,23.82c-7,12.6-9.81,14.7-9.81,14.7l-1.4,11.21-4.9-11.21s7-28,4.2-38.52" transform="translate(-262.13 -76.77)"/><path class="cls-7" d="M479.7,336.84l6.31,5.6s2.8-3.5,6.3,1.4,9.11,12.61,9.11,12.61l3.15,1.4,4.55-8.41-12.61-14Z" transform="translate(-262.13 -76.77)"/><path class="cls-7" d="M444,320s10.86,7.7,18.21,7.7,12.61,5.6,12.61,5.6l17.51-1.4L472.7,315.12S465,319.33,444,320" transform="translate(-262.13 -76.77)"/></g><polygon class="cls-7" points="160.84 224.35 178.35 241.16 206.37 236.25 185.36 223.65 160.84 224.35"/><polygon class="cls-7" points="146.13 212.09 157.34 221.54 180.45 220.84 152.44 206.84 146.13 212.09"/><polygon class="cls-7" points="117.42 198.43 141.93 210.34 148.23 205.44 122.32 193.53 117.42 198.43"/><polygon class="cls-7" points="97.81 183.72 113.92 196.33 117.42 192.83 97.81 183.72"/><g class="cls-2"><path class="cls-9" d="M523.13,507.74s-7,19.61,7,50.43c7,16.81,16.11-42.73,16.11-42.73s6.31,10.16,48.33,5.61c2.1-3.51-7.7-13.31-49.73-25.22,17.51-16.81,18.21-20.31,18.21-20.31s-7.7,1.4-15.41-11.56l-8,8.06s-9.46,28-17.16,28-9.11-23.11-9.11-23.11-28.36-11.21-44.82-1.4c3.5,9.8,28,22.41,36.42,22.41-36.42,18.56-39.23,16.11-44.13,32.22,4.9,2.1,15.41-.7,15.41-.7l23.81-4.2s16.81-2.1,23.12-17.51" transform="translate(-262.13 -76.77)"/><path class="cls-9" d="M521,448.9l-19.61-2.1s-20.32-8.05-23.12-21.71c21-4.9,25.22-9.46,51.48,1.75-6.3-17.51-8.75-38.87,1.4-49.38,9.81,17.86,12.61,8.41,15.76,47.63C561.48,416,593.17,410,595.62,410s2.45-.7,2.45-.7,2.1,16.11-42,33.27c-.7,4.55-.7,4.9-.7,4.9s21,10.86,29.77,28.37l.35,1.75s-25.22,0-42-20.31c-2.45,1.05-2.1,4.2-2.1,4.2s-8.41,29.07-18.91,36.07c-1.4-.7-11.56-7.35-1.4-48.68" transform="translate(-262.13 -76.77)"/><path class="cls-9" d="M431,472.37s35.72,12.6,57.79-16.46c4.9-5.61,2.62-9.11,2.62-9.11s-43.6-1.4-60.41,25.57" transform="translate(-262.13 -76.77)"/><path class="cls-9" d="M488.81,445.05s-52.18-19.61-53.93-24.16c-2.45,2.8,0,8.4,0,8.4s10.85,19.26,20.31,18.91,33.62-3.15,33.62-3.15" transform="translate(-262.13 -76.77)"/><path class="cls-9" d="M430.32,449.25l10.86,8.06L457.64,450S452,452.4,443.28,444c-8.75,1.4-13,5.25-13,5.25" transform="translate(-262.13 -76.77)"/><path class="cls-9" d="M441.18,476.57s-4.55,4.55-4.9,9.8,18.91,3,23.46-3.15c1.4-6.65,1.4-7,1.4-7s-13,3.15-20,.35" transform="translate(-262.13 -76.77)"/><path class="cls-9" d="M464.64,474.82A49.19,49.19,0,0,0,458,503.53c1.05,1.06,3.85,0,3.85,0l13.66-16.46s-4.55-1.22-10.86-12.25" transform="translate(-262.13 -76.77)"/><path class="cls-9" d="M493.36,453.1l1.05,9.11-6,7.7-14,.7s17.16-9.8,18.91-17.51" transform="translate(-262.13 -76.77)"/><path class="cls-9" d="M447.48,416.68s23.12-24.51,57.09-16.81c-4.56-17.51-2.45-24.51-2.45-24.51s2.8-20.31,14-29.42a19.33,19.33,0,0,1,4.21,7.71S514,386.57,514,390.77s8.41,11.91,8.41,11.91l.7,14.7a43.19,43.19,0,0,0-31.52-3.5c-17.51,4.9-30.12,9.11-44.13,2.8" transform="translate(-262.13 -76.77)"/><path class="cls-9" d="M446.08,386.57l21,13.3s24.52-6.3,33.62-4.2c-13.3-11.91-13.65-12.61-13.65-12.61s-34.67-11.2-41,3.51" transform="translate(-262.13 -76.77)"/><path class="cls-9" d="M486,378.16l14,14s-.35-25.22,2.11-31.52c-10.51-14-11.91-16.11-11.91-16.11a36.67,36.67,0,0,0-4.2,33.62" transform="translate(-262.13 -76.77)"/><path class="cls-9" d="M516.12,312.32s-8.4,34.32,18.92,49.73c2.8-1.4-.7-3.5,1.4-11.21s2.1-4.9,2.1-4.9a198.14,198.14,0,0,1-22.42-33.62" transform="translate(-262.13 -76.77)"/><path class="cls-9" d="M530.83,332.63l9.11,11.21,8.4-7-.7-30.47-3.5-3.15s-12.61,15.41-13.31,29.41" transform="translate(-262.13 -76.77)"/><path class="cls-9" d="M537.14,363.45l7,4.2s12.61-18.91,16.11-19.61a7.33,7.33,0,0,0,4.9-4.2l3.51-24.51s-31.52,24.51-31.52,44.12" transform="translate(-262.13 -76.77)"/><path class="cls-9" d="M547.64,367.65l12.61.7s11.91-12.6,16.11-14,14-11.21,14-11.21-28.72.7-42.73,24.51" transform="translate(-262.13 -76.77)"/><path class="cls-9" d="M568.66,333.33l-1.41,12.61,11.21-3.5s8.41-5.6,10.51-19.61c-14,5.6-20.31,10.5-20.31,10.5" transform="translate(-262.13 -76.77)"/><path class="cls-9" d="M394.25,470.62s9.81,16.81,35.72,5.6a10.84,10.84,0,0,1-1.4-4.2l4.2-7s-23.11-2.1-38.52,5.61" transform="translate(-262.13 -76.77)"/><path class="cls-9" d="M393.55,458.71l10.51,4.2,29.42-1.4,4.2-2.1-9.81-9.81s-25.91-.7-34.32,9.11" transform="translate(-262.13 -76.77)"/><path class="cls-9" d="M397.05,439.8l9.11,8.4,21.71-.7,10.51-5.6s-6.31-7-41.33-2.1" transform="translate(-262.13 -76.77)"/><path class="cls-9" d="M391.45,451.28l8.41,1.4,3.5-2.81-4.91-4.9s-7,1.4-7,6.31" transform="translate(-262.13 -76.77)"/><path class="cls-9" d="M390.75,463.26l2.45-2.8,9.11,4.2-7.71,3.68s-4.55-1.58-3.85-5.08" transform="translate(-262.13 -76.77)"/></g><polygon class="cls-7" points="211.27 566.85 219.68 606.77 252.6 608.88 211.27 566.85"/><g class="cls-2"><path class="cls-7" d="M453.09,665.33A53,53,0,0,1,465,678.64c4.56,7.7,13.31,5.6,13.31,5.6l-7.7-44.82s-14-28.72-21-29.42a150,150,0,0,1,3.51,15.41Z" transform="translate(-262.13 -76.77)"/><path class="cls-7" d="M428.57,591.09s9.11,32.92-.7,60.93c9.11,15.41,10.51,7,20.31,12.61s1.41,0,1.41,0,2.1-49.73-4.21-58.13-16.81-15.41-16.81-15.41" transform="translate(-262.13 -76.77)"/><path class="cls-7" d="M413.86,575s2.81,21-5.6,31.52c-2.8,17.51,0,15.41,0,15.41s13.31,12.6,14,23.11l2.8,4.2s10.51-15.41,0-60.23c-10.51-13.31-11.21-14-11.21-14" transform="translate(-262.13 -76.77)"/><path class="cls-7" d="M407.56,600.89c-1.21,1.72,1.4-24.51-2.8-30.82,6.3,4.21,6.3,7,6.3,7a26.22,26.22,0,0,1-3.5,23.81" transform="translate(-262.13 -76.77)"/><path class="cls-7" d="M468.5,628.91l11.2,16.81,35.72,36.42s-12.6-7.7-14.7-37.12c-20.32-7.71-22.42-9.81-22.42-9.81Z" transform="translate(-262.13 -76.77)"/><path class="cls-7" d="M453.09,606.5s4.2,9.8,15.41,18.91S500,641.52,500,641.52s5.61-11.21.7-25.92c-13.65-3.5-39.22-7-39.22-7Z" transform="translate(-262.13 -76.77)"/><path class="cls-7" d="M430,586.88l19.62,15.41L500,612.8S487.41,589,483.21,585.48s-53.24,1.4-53.24,1.4" transform="translate(-262.13 -76.77)"/><path class="cls-7" d="M405.46,561.67l21.71,21.71L481.8,582l-.7-2.8s-2.8,4.2-4.2-18.21c-21-3.5-50.43,5.6-71.44.7" transform="translate(-262.13 -76.77)"/><path class="cls-7" d="M404.76,556.77l-2.1-18.91s11.2,4.2,21-3.86,26.62-1.75,26.62-1.75,20.31,10.51,27.31,25.22c-70,2.1-72.84,2.8-72.84,2.8Z" transform="translate(-262.13 -76.77)"/><path class="cls-7" d="M403.36,511.94,402,534.35s13.3,7,21.71-4.9c16.11-3.5,20.31-1.4,20.31-1.4l-23.11-16.81Z" transform="translate(-262.13 -76.77)"/></g><polygon class="cls-7" points="141.93 431.67 155.94 431.67 146.13 416.26 141.93 431.67"/><g class="cls-2"><path class="cls-7" d="M411.06,484.62s2.1,20.32,13.31,25.22c15.41-.7,25.21-5.6,25.21-5.6l4.91-8.41.7-7s-14.71,5.6-20.66.7,1.75-12.61,1.75-12.61a148.2,148.2,0,0,1-25.22,7.7" transform="translate(-262.13 -76.77)"/><path class="cls-7" d="M441.18,524.2s33.62,6.65,47.63,36.07a95.7,95.7,0,0,1-4.2,19.61s0,1.4-4.21-17.51S467.09,541,441.18,524.2" transform="translate(-262.13 -76.77)"/><path class="cls-7" d="M464.29,531.9s22.07,11.91,24.87,24.52c1-17.51-3.15-27.32-3.15-27.32s-11.56,5.25-21.72,2.8" transform="translate(-262.13 -76.77)"/><path class="cls-7" d="M425.77,512.29s26.62-1,29.07-8.93c3.15,2.63,5.6,2.63,5.6,2.63l-15.06,16.46h-5.6Z" transform="translate(-262.13 -76.77)"/><path class="cls-7" d="M447.13,522.8l12.26,5.25s4.2-15.06,16.11-19.26c-8.05-9.11-8.75-9.11-8.75-9.11s-5.26,9.81-19.62,23.12" transform="translate(-262.13 -76.77)"/></g><polygon class="cls-7" points="196.91 321.53 202.17 324.16 194.81 329.76 130.72 323.72 130.02 316.8 196.91 321.53"/><g class="cls-2"><path class="cls-7" d="M391.45,399.87s-20,2.81-20.66,6.31c-26.62-7-27.32-8.41-27.32-8.41s14.71-9.1,48,2.1" transform="translate(-262.13 -76.77)"/><path class="cls-7" d="M366.94,407.58l-25.57-8.41a32.32,32.32,0,0,1-14,5.61c-8.05,1.05-7.7,6.65-7.7,6.65l36.42,3.5Z" transform="translate(-262.13 -76.77)"/><path class="cls-7" d="M319,413.18l33.27,3.5-15.06,11.91-25.22.35s6.66-7.35,7-15.76" transform="translate(-262.13 -76.77)"/><path class="cls-7" d="M311.52,430.77l22.32,1.32-11.73,14.36S309.5,444,299,451.35c-4.2,3.86-2.17-9.37,12.53-20.58" transform="translate(-262.13 -76.77)"/><path class="cls-7" d="M295.14,455.56l.35,9.1,11.56-1.75,11.56-13s-8.41-2.45-14.71.88-8.76,4.73-8.76,4.73" transform="translate(-262.13 -76.77)"/><path class="cls-7" d="M295.14,467.54s-5.6,5.53-5.6,9.73-3.85,8.05-3.85,8.05l22.41-18.56Z" transform="translate(-262.13 -76.77)"/><path class="cls-7" d="M390.4,396.72s-23.46-19.26-52.18-17.86c8.75,3.5,19.26,12.61,19.26,12.61Z" transform="translate(-262.13 -76.77)"/><path class="cls-7" d="M315.81,389.54l21,8.93s12.26-5.6,16.46-6.65-15.76-11.56-17.16-11.56-3.15,5.26-20.31,9.28" transform="translate(-262.13 -76.77)"/><path class="cls-7" d="M334.72,399.87l-22.42-9.1s-8.05-.7-12.25,12.26-7,12.25-7,12.25l24.52-2.45s-1.05-8.4,8.05-10.51,9.11-2.45,9.11-2.45" transform="translate(-262.13 -76.77)"/><path class="cls-7" d="M293.39,418.08l-.7,17.87s9.46-1.41,10.51-1.06,13.66-14,13.66-19.08c-23.12,1.92-23.47,2.27-23.47,2.27" transform="translate(-262.13 -76.77)"/><path class="cls-7" d="M291.29,439.45s-10.51,8.05-9.46,23.81c4.91-3.15,6.66-4.73,9.81-4.2s.7-15.59,8.41-20.66c-8.9,1.12-8.76,1.05-8.76,1.05" transform="translate(-262.13 -76.77)"/><path class="cls-7" d="M282.19,465.29s5-5.6,10.64-4.62c1,6.44.42,6.16.42,6.16s-4.06,3.23-5.18,10.79c-1.82,5.46-2.52,6.44-5.46,9.81s4.48-17.65-.42-22.14" transform="translate(-262.13 -76.77)"/><path class="cls-7" d="M376.39,385.16l10.86,7s-1.75-29.42-2.8-31.87-8.06,24.86-8.06,24.86" transform="translate(-262.13 -76.77)"/><path class="cls-7" d="M364.48,374.31l10.16,8.75,8.06-24.16s.7-22.77-7-25.92c-9.8,36.42-11.21,41.33-11.21,41.33" transform="translate(-262.13 -76.77)"/><path class="cls-7" d="M348,356.71l14.71,15.5s11.21-35.37,10.16-41-1.84-6.3-1.84-6.3a27.59,27.59,0,0,0-21.27-13.31c0,9.81-1.76,45.09-1.76,45.09" transform="translate(-262.13 -76.77)"/><path class="cls-7" d="M331.56,335.79,345.92,354l2.1-42.38s-10.85,1.05-14-1.4-10.51-6.65-10.51-6.65Z" transform="translate(-262.13 -76.77)"/></g><polygon class="cls-7" points="35.47 220.84 66.29 255.51 58.58 225.05 35.47 220.84"/><polygon class="cls-7" points="35.47 223.3 35.82 242.73 64.53 256.57 35.47 223.3"/><g class="cls-2"><path class="cls-7" d="M297.59,322.13,327,335.78l16.81,22.07s-5.6-6.66-17.16-6.66-20.31,4.21-29.07-11.9Z" transform="translate(-262.13 -76.77)"/><path class="cls-7" d="M344.17,359.25l18.13,17.16s-6.57-7-19.53-5.25-15.06,5.6-23.81.7S306.7,353.3,306.7,353.3l-2.45-3.16s9.45,6,25.21,2.81c7.36,1.05,14.71,6.3,14.71,6.3" transform="translate(-262.13 -76.77)"/><path class="cls-7" d="M321.06,374.31l10.5,5.6a21.38,21.38,0,0,1,7.71-3.15c4.2-.7,26.26,3.15,27.67,4.2s-13.4-7.35-13.4-7.35-10.42-3.15-19.87,1.4c-10.86,1.4-9.46.35-12.61-.7" transform="translate(-262.13 -76.77)"/><path class="cls-9" d="M905.91,540s2.8,7,25.91,12.25l3.15,4.21s-26.61,19.26-28.71,32.22l7.35.7s15.06-8.41,26.27-7.71c7.35-2.45,7.7-2.8,7.7-2.8l7.88-6s1.88,20.61,5.43,18.56c6.65-3.86,15.76-8.06,15.76-8.06s-2.1-13-7-14.36,22.77,5.26,41.68-1.4l3.5-1s-4.9-10.85-20-13.31c-17.86,0-19.61.7-19.61.7s10.85-10.15,4.55-40.27c-15.06,10.86-16.11,3.85-25.56,32.22-.71,1.23-1.41.7-1.41.7s-5.25-14.36-23.11-15.41-10.16,9.11-23.81,5.25c-1.75,2.81,0,3.51,0,3.51" transform="translate(-262.13 -76.77)"/></g><text class="cls-10" transform="matrix(0.93, -0.36, 0.36, 0.93, 290.27, 150.53)">T</text><text class="cls-11" transform="translate(342.16 129.65) rotate(-10.33)">H</text><text class="cls-12" transform="translate(409.85 118.04) rotate(0.64)">E</text><text class="cls-13" transform="translate(467.41 119.89) rotate(8.29)"> </text><text class="cls-13" transform="translate(495.12 123.35) rotate(15.32)">L</text><text class="cls-14" transform="translate(543.62 137.35) rotate(22.4)">I</text><text class="cls-15" transform="translate(570.57 147.56) rotate(29.48)">T</text><text class="cls-16" transform="matrix(0.77, 0.63, -0.63, 0.77, 619.09, 175.12)">T</text><text class="cls-11" transform="matrix(0.66, 0.75, -0.75, 0.66, 662.12, 210.64)">L</text><text class="cls-14" transform="translate(695.34 248.75) rotate(57.88)">E</text><text class="cls-17" transform="translate(64.74 544.79) rotate(70.43)">C</text><text class="cls-11" transform="matrix(0.52, 0.85, -0.85, 0.52, 87.77, 611.55)">O</text><text class="cls-18" transform="translate(132.07 681.41) rotate(48.09)">F</text><text class="cls-16" transform="translate(170.74 724.24) rotate(39.19)">F</text><text class="cls-13" transform="translate(215.48 760.64) rotate(31.12)">E</text><text class="cls-19" transform="translate(267.23 791.6) rotate(22.44)">E</text><text class="cls-10" transform="translate(323.23 813.7) rotate(16.43)"> </text><text class="cls-20" transform="matrix(0.99, 0.16, -0.16, 0.99, 352.24, 823.51)">C</text><text class="cls-18" transform="translate(422.85 834.09) rotate(0.94)">L</text><text class="cls-13" transform="translate(473.97 835.73) rotate(-7.17)">U</text><text class="cls-14" transform="translate(543.87 826.33) rotate(-15.25)">B</text></svg>